<mxfile host="app.diagrams.net" modified="2024-04-14T14:59:49.414Z" agent="Mozilla/5.0 (Windows NT 10.0; Win64; x64) AppleWebKit/537.36 (KHTML, like Gecko) Chrome/123.0.0.0 Safari/537.36" version="24.1.0" etag="TF7Eld4Z_xUsJ4jicxYg" type="github">
  <diagram name="第 1 页" id="40mPPau0qIIRxGh7WFAv">
    <mxGraphModel>
      <root>
        <mxCell id="0" />
        <mxCell id="1" parent="0" />
      </root>
    </mxGraphModel>
  </diagram>
</mxfile>
